<?xml version="1.0" encoding="UTF-8" standalone="no"?>
<!-- Created with Inkscape (http://www.inkscape.org/) -->

<svg
   width="66.095177mm"
   height="23.752949mm"
   viewBox="0 0 66.095177 23.752949"
   version="1.1"
   id="svg1"
   xmlns="http://www.w3.org/2000/svg"
   xmlns:svg="http://www.w3.org/2000/svg">
  <defs
     id="defs1" />
  <g
     id="layer1"
     transform="translate(-71.952412,-127.36686)"
     style="fill:#ff8001;fill-opacity:1">
    <g
       id="g1">
      <path
         style="font-weight:800;font-size:22.5778px;font-family:'Inter Variable';-inkscape-font-specification:'Inter Variable Ultra-Bold';text-align:center;text-anchor:middle;fill:#ff8001;fill-opacity:1;stroke-width:0.264583"
         d="m 125.36962,140.8055 v -3.09783 h 8.80843 v 3.09783 z"
         id="path5" />
      <path
         style="font-weight:800;font-size:22.5778px;font-family:'Inter Variable';-inkscape-font-specification:'Inter Variable Ultra-Bold';text-align:center;text-anchor:middle;fill:#ff8001;fill-opacity:1;stroke-width:0.264583"
         d="m 121.50009,143.96948 5.64445,-16.42623 h 5.22552 l 5.67753,16.42623 h -4.43178 l -2.22691,-7.22093 q -0.54019,-1.80798 -1.06936,-3.64904 -0.52917,-1.84106 -1.08038,-3.99081 h 1.06936 q -0.57327,2.14975 -1.11346,3.99081 -0.52917,1.84106 -1.09141,3.64904 l -2.29306,7.22093 z"
         id="path4" />
      <path
         style="font-weight:800;font-size:22.5778px;font-family:'Inter Variable';-inkscape-font-specification:'Inter Variable Ultra-Bold';text-align:center;text-anchor:middle;fill:#ff8001;fill-opacity:1;stroke-width:0.264583"
         d="m 105.1797,143.96948 -4.37665,-16.42623 h 4.26641 l 1.6316,7.2981 q 0.24253,1.11345 0.452,2.22691 0.22048,1.10243 0.41892,2.20486 0.20946,1.10244 0.39688,2.21589 h -0.8599 q 0.22049,-1.11345 0.42995,-2.21589 0.22048,-1.10243 0.45199,-2.20486 0.24254,-1.11346 0.50712,-2.22691 l 1.75287,-7.2981 h 3.93568 l 1.75287,7.2981 q 0.25356,1.11345 0.48507,2.22691 0.24253,1.10243 0.46302,2.20486 0.22048,1.10244 0.44097,2.21589 h -0.88194 q 0.19843,-1.11345 0.39687,-2.21589 0.20946,-1.10243 0.41892,-2.20486 0.22049,-1.11346 0.46303,-2.22691 l 1.63159,-7.2981 h 4.27744 l -4.38768,16.42623 h -4.38768 l -2.10564,-8.30131 q -0.23151,-0.93707 -0.48507,-2.17179 -0.24254,-1.23472 -0.61736,-2.91042 h 1.12448 q -0.37483,1.6757 -0.61736,2.91042 -0.24254,1.23472 -0.48507,2.17179 l -2.09462,8.30131 z"
         id="path3" />
      <path
         style="font-weight:800;font-size:22.5778px;font-family:'Inter Variable';-inkscape-font-specification:'Inter Variable Ultra-Bold';text-align:center;text-anchor:middle;fill:#ff7f00;fill-opacity:1;stroke-width:0.264583"
         d="m 97.782386,131.1923 q -0.915018,0 -1.499307,-0.54019 -0.584289,-0.54019 -0.584289,-1.37804 0,-0.83785 0.584289,-1.36702 0.584289,-0.54019 1.499307,-0.54019 0.915018,0 1.499307,0.54019 0.595313,0.52917 0.595313,1.36702 0,0.83785 -0.595313,1.37804 -0.584289,0.54019 -1.499307,0.54019 z"
         id="path2" />
      <path
         style="font-weight:800;font-size:22.5778px;font-family:'Inter Variable';-inkscape-font-specification:'Inter Variable Ultra-Bold';text-align:center;text-anchor:middle;fill:#ff8001;fill-opacity:1;stroke-width:0.264583"
         d="M 95.897228,143.96948 V 132.3278 h 3.792365 v 11.64168 z"
         id="path1" />
      <path
         style="font-weight:800;font-size:22.5778px;font-family:'Inter Variable';-inkscape-font-specification:'Inter Variable Ultra-Bold';text-align:center;text-anchor:middle;fill:#ff8001;fill-opacity:1;stroke-width:0.264583"
         d="m 76.329066,143.96948 -4.376654,-16.42623 h 4.266411 l 1.631599,7.2981 q 0.242535,1.11345 0.451997,2.22691 0.220486,1.10243 0.418924,2.20486 0.209462,1.10244 0.396875,2.21589 h -0.859897 q 0.220487,-1.11345 0.429949,-2.21589 0.220486,-1.10243 0.451997,-2.20486 0.242535,-1.11346 0.507118,-2.22691 l 1.752867,-7.2981 h 3.935681 l 1.752866,7.2981 q 0.253559,1.11345 0.48507,2.22691 0.242535,1.10243 0.463021,2.20486 0.220487,1.10244 0.440973,2.21589 h -0.881945 q 0.198437,-1.11345 0.396875,-2.21589 0.209462,-1.10243 0.418924,-2.20486 0.220487,-1.11346 0.463021,-2.22691 l 1.631599,-7.2981 h 4.277435 l -4.387678,16.42623 h -4.387678 l -2.105644,-8.30131 q -0.231511,-0.93707 -0.48507,-2.17179 -0.242535,-1.23472 -0.617362,-2.91042 h 1.12448 q -0.374827,1.6757 -0.617362,2.91042 -0.242534,1.23472 -0.485069,2.17179 l -2.094621,8.30131 z"
         id="text2" />
    </g>
    <path
       style="font-weight:900;font-size:5.64444px;font-family:Inter;-inkscape-font-specification:'Inter, Heavy';text-align:center;text-anchor:middle;stroke-width:0.264583"
       d="m 73.54217,149.92918 h 1.146526 v -1.4993 c 0,-0.2701 -0.03032,-0.72209 -0.06339,-1.19338 0.198437,0.46026 0.350021,0.77446 0.606336,1.19338 l 0.912261,1.4993 h 1.212672 v -4.10655 h -1.146527 v 1.50482 c 0,0.30317 0.03583,0.80477 0.06339,1.2237 -0.16812,-0.46302 -0.333485,-0.77722 -0.54019,-1.11621 l -0.978407,-1.61231 h -1.212672 z m 5.845633,0.0551 c 1.000455,0 1.590255,-0.63941 1.590255,-1.5875 0,-0.94534 -0.5898,-1.5875 -1.590255,-1.5875 -1.005967,0 -1.595767,0.64216 -1.595767,1.5875 0,0.94809 0.5898,1.5875 1.595767,1.5875 z m 0,-0.82683 c -0.292144,0 -0.465776,-0.28387 -0.465776,-0.76619 0,-0.48506 0.173632,-0.75516 0.465776,-0.75516 0.286632,0 0.460265,0.2701 0.460265,0.75516 0,0.48232 -0.173633,0.76619 -0.460265,0.76619 z m 3.16673,0.7717 h 1.107942 v -1.79696 c 0,-0.26734 0.137803,-0.42994 0.369314,-0.42994 0.225998,0 0.374826,0.1626 0.374826,0.42994 v 1.79696 h 1.058332 v -1.79696 c 0,-0.26734 0.14056,-0.42994 0.369314,-0.42994 0.228754,0 0.374826,0.1626 0.374826,0.42994 v 1.79696 h 1.107942 v -2.07808 c 0,-0.63114 -0.405143,-1.04179 -0.992187,-1.04179 -0.410655,0 -0.813042,0.20119 -1.008723,0.74414 -0.16812,-0.54295 -0.410655,-0.74414 -0.799261,-0.74414 -0.374827,0 -0.722092,0.19017 -0.895725,0.66972 l -0.05512,-0.63114 h -1.011479 z m 6.184631,0.0496 c 0.39963,0 0.700042,-0.1378 0.887455,-0.48507 h 0.02205 v 0.43546 h 1.036284 v -2.11115 c 0,-0.56775 -0.562239,-1.00872 -1.438671,-1.00872 -0.865407,0 -1.336696,0.42168 -1.422134,0.93706 l 0.997699,0.0992 c 0.03583,-0.18741 0.198437,-0.27561 0.407899,-0.27561 0.212217,0 0.347265,0.091 0.347265,0.24805 v 0.011 c 0,0.17914 -0.195681,0.23426 -0.711067,0.27009 -0.636653,0.0468 -1.129991,0.30592 -1.129991,0.98116 0,0.61185 0.410656,0.89848 1.003212,0.89848 z m 0.358289,-0.70004 c -0.187413,0 -0.319704,-0.0909 -0.319704,-0.26458 0,-0.1571 0.110243,-0.27837 0.369314,-0.31971 0.173632,-0.0276 0.32246,-0.0634 0.440971,-0.11024 v 0.25356 c 0,0.28112 -0.239778,0.44097 -0.490581,0.44097 z m 3.621482,1.86862 c 0.972894,0 1.620571,-0.46578 1.620571,-1.33394 v -2.96554 h -1.096917 v 0.54019 h -0.02205 c -0.121267,-0.31419 -0.421679,-0.57877 -0.876431,-0.57877 -0.611849,0 -1.207161,0.46577 -1.207161,1.58198 0,1.06385 0.556727,1.49931 1.212673,1.49931 0.416167,0 0.700043,-0.17915 0.818554,-0.49058 h 0.07993 v 0.52365 c 0,0.32246 -0.176389,0.47956 -0.534678,0.47956 -0.283876,0 -0.471289,-0.0992 -0.504362,-0.26458 l -0.972894,0.14331 c 0.08819,0.52917 0.639409,0.86541 1.482768,0.86541 z m 0.03858,-2.04501 c -0.303168,0 -0.479557,-0.25631 -0.479557,-0.71107 0,-0.4575 0.176389,-0.73311 0.479557,-0.73311 0.305924,0 0.490581,0.27561 0.490581,0.73311 0,0.44649 -0.184657,0.71107 -0.490581,0.71107 z m 2.144225,0.82682 h 1.107942 v -3.08129 H 94.90174 Z m 0.551215,-3.39548 c 0.300412,0 0.545703,-0.226 0.545703,-0.50712 0,-0.28112 -0.245291,-0.50711 -0.545703,-0.50711 -0.300412,0 -0.545702,0.22599 -0.545702,0.50711 0,0.28112 0.24529,0.50712 0.545702,0.50712 z m 2.601735,3.45061 c 0.854381,0 1.400081,-0.45751 1.474501,-1.19063 l -1.016993,-0.14883 c -0.04685,0.33349 -0.198437,0.51263 -0.440972,0.51263 -0.292144,0 -0.479557,-0.26182 -0.479557,-0.76619 0,-0.50711 0.187413,-0.75516 0.479557,-0.75516 0.245291,0 0.388607,0.17363 0.440972,0.49609 l 1.016993,-0.15158 c -0.0717,-0.71382 -0.62563,-1.17133 -1.474501,-1.17133 -1.003211,0 -1.593011,0.64216 -1.593011,1.5875 0,0.94809 0.5898,1.5875 1.593011,1.5875 z m 2.69268,0.011 c 0.32246,0 0.56775,-0.23978 0.56775,-0.55948 0,-0.31971 -0.24529,-0.55949 -0.56775,-0.55949 -0.32246,0 -0.56775,0.23978 -0.56775,0.55949 0,0.3197 0.24529,0.55948 0.56775,0.55948 z m 3.47266,-0.011 c 0.95084,0 1.48277,-0.48232 1.48277,-1.34497 v -2.81671 h -1.09692 v 2.83876 c 0,0.30868 -0.13781,0.45751 -0.38585,0.45751 -0.25081,0 -0.39136,-0.14883 -0.39136,-0.452 v -0.27836 h -1.11346 v 0.25631 c 0,0.8599 0.54019,1.33946 1.50482,1.33946 z m 3.10334,-0.0165 c 0.52641,0 0.81855,-0.31419 0.97014,-0.73312 l 0.0193,0.69453 h 1.03904 v -3.08129 h -1.10794 v 1.73082 c 0,0.30592 -0.17364,0.49058 -0.44649,0.49058 -0.27836,0 -0.44097,-0.18466 -0.44097,-0.49058 v -1.73082 h -1.10794 v 1.96233 c 0,0.67248 0.42168,1.15755 1.07487,1.15755 z m 3.96599,0.0165 c 0.87919,0 1.51859,-0.41342 1.51859,-1.07487 0,-0.45476 -0.30868,-0.7221 -0.93706,-0.83234 l -0.62839,-0.11024 c -0.23151,-0.0413 -0.29214,-0.12954 -0.29214,-0.22049 0,-0.12678 0.15158,-0.19843 0.34175,-0.19843 0.21498,0 0.39137,0.0909 0.44098,0.29214 l 0.97565,-0.14056 c -0.0965,-0.55948 -0.62288,-0.89021 -1.43868,-0.89021 -0.88194,0 -1.42213,0.36104 -1.42213,1.00321 0,0.48507 0.31144,0.79099 0.93707,0.90399 l 0.5457,0.0992 c 0.24253,0.0441 0.35278,0.10749 0.35278,0.226 0,0.12678 -0.12678,0.19292 -0.34451,0.19292 -0.3142,0 -0.46578,-0.13504 -0.53744,-0.37758 l -1.02526,0.14883 c 0.10473,0.60634 0.67524,0.97841 1.51309,0.97841 z m 3.7455,-3.13642 h -0.52916 v -0.73311 h -1.10795 v 0.73311 h -0.39136 v 0.80478 h 0.39136 v 1.38906 c 0,0.6146 0.35278,0.93431 1.04456,0.93431 0.19843,0 0.42168,-0.0193 0.67523,-0.0882 l -0.13229,-0.79099 c -0.0413,0.0138 -0.20395,0.0358 -0.27009,0.0358 -0.14607,0 -0.20946,-0.0634 -0.20946,-0.19293 v -1.28708 h 0.52916 z m 3.05925,3.13642 c 0.85438,0 1.40008,-0.45751 1.4745,-1.19063 l -1.017,-0.14883 c -0.0468,0.33349 -0.19843,0.51263 -0.44097,0.51263 -0.29214,0 -0.47955,-0.26182 -0.47955,-0.76619 0,-0.50711 0.18741,-0.75516 0.47955,-0.75516 0.24529,0 0.38861,0.17363 0.44097,0.49609 l 1.017,-0.15158 c -0.0717,-0.71382 -0.62563,-1.17133 -1.4745,-1.17133 -1.00322,0 -1.59301,0.64216 -1.59301,1.5875 0,0.94809 0.58979,1.5875 1.59301,1.5875 z m 3.4065,0 c 1.00046,0 1.59026,-0.63941 1.59026,-1.5875 0,-0.94534 -0.5898,-1.5875 -1.59026,-1.5875 -1.00596,0 -1.59576,0.64216 -1.59576,1.5875 0,0.94809 0.5898,1.5875 1.59576,1.5875 z m 0,-0.82683 c -0.29214,0 -0.46577,-0.28387 -0.46577,-0.76619 0,-0.48506 0.17363,-0.75516 0.46577,-0.75516 0.28664,0 0.46027,0.2701 0.46027,0.75516 0,0.48232 -0.17363,0.76619 -0.46027,0.76619 z m 3.14468,0.81029 c 0.43271,0 0.72761,-0.23151 0.85439,-0.5457 h 0.0276 v 0.50711 h 1.09692 v -4.10655 h -1.10795 v 1.56545 h -0.0165 c -0.11851,-0.31419 -0.4079,-0.57877 -0.86541,-0.57877 -0.60909,0 -1.20165,0.46577 -1.20165,1.58198 0,1.06385 0.55397,1.57648 1.21267,1.57648 z m 0.4079,-0.84887 c -0.30592,0 -0.47955,-0.27285 -0.47955,-0.72761 0,-0.4575 0.17363,-0.73311 0.47955,-0.73311 0.30317,0 0.49058,0.27561 0.49058,0.73311 0,0.44649 -0.18741,0.72761 -0.49058,0.72761 z m 3.61046,0.86541 c 0.78548,0 1.30362,-0.34727 1.46072,-0.90124 l -0.97565,-0.14332 c -0.0662,0.17088 -0.23703,0.26734 -0.46302,0.26734 -0.30593,0 -0.50988,-0.1819 -0.52366,-0.56224 h 2.00642 v -0.25356 c 0,-0.98116 -0.60082,-1.58198 -1.53237,-1.58198 -0.9536,0 -1.55994,0.63389 -1.55994,1.5875 0,0.9977 0.59807,1.5875 1.5875,1.5875 z m -0.49334,-1.94579 c 0.0331,-0.29215 0.19568,-0.452 0.4768,-0.452 0.28112,0 0.44373,0.15985 0.4768,0.452 z m 3.21083,1.95681 c 0.32246,0 0.56775,-0.23978 0.56775,-0.55948 0,-0.31971 -0.24529,-0.55949 -0.56775,-0.55949 -0.32246,0 -0.56775,0.23978 -0.56775,0.55949 0,0.3197 0.24529,0.55948 0.56775,0.55948 z m 1.4056,-1.73908 c 0,0.84336 0.24529,1.68947 0.71106,2.44188 h 1.00873 c -0.43271,-1.07763 -0.5898,-1.7253 -0.5898,-2.44188 0,-0.84612 0.21773,-1.8383 0.5898,-2.68442 h -1.00873 c -0.41892,0.65319 -0.71106,1.76113 -0.71106,2.68442 z m 1.9513,2.44188 h 1.00872 c 0.46578,-0.75241 0.71107,-1.59852 0.71107,-2.44188 0,-0.92329 -0.29215,-2.03123 -0.71107,-2.68442 h -1.00872 c 0.37207,0.84612 0.5898,1.8383 0.5898,2.68442 0,0.71658 -0.1571,1.36425 -0.5898,2.44188 z"
       id="text2-8"
       aria-label=" No magic. Just code.() " />
  </g>
</svg>
