<?xml version="1.0" encoding="UTF-8" standalone="no"?>
<!-- Created with Inkscape (http://www.inkscape.org/) -->

<svg
   width="91.952545mm"
   height="91.952545mm"
   viewBox="0 0 91.952545 91.952545"
   version="1.1"
   id="svg1"
   xmlns="http://www.w3.org/2000/svg"
   xmlns:svg="http://www.w3.org/2000/svg">
  <defs
     id="defs1" />
  <g
     id="layer1"
     transform="translate(-59.023727,-102.52373)">
    <rect
       style="fill:#e0901f;fill-opacity:1;stroke-width:0.264583"
       id="rect1"
       width="91.952545"
       height="91.952545"
       x="59.023727"
       y="102.52373" />
    <path
       d="m 83.432327,189.1846 -9.84746,-36.95898 h 9.599413 l 3.671094,16.4207 c 0.363803,1.67018 0.702799,3.34036 1.016992,5.01055 0.33073,1.65365 0.644922,3.30729 0.942578,4.96093 0.314193,1.65365 0.61185,3.31556 0.892969,4.98575 h -1.934766 c 0.330729,-1.67019 0.65319,-3.3321 0.967383,-4.98575 0.330729,-1.65364 0.669727,-3.30728 1.016992,-4.96093 0.363802,-1.67019 0.744141,-3.34037 1.141016,-5.01055 l 3.943945,-16.4207 h 8.855267 l 3.94395,16.4207 c 0.38034,1.67018 0.74414,3.34036 1.0914,5.01055 0.36381,1.65365 0.71107,3.30729 1.0418,4.96093 0.33073,1.65365 0.66146,3.31556 0.99219,4.98575 h -1.98438 c 0.29766,-1.67019 0.59532,-3.3321 0.89297,-4.98575 l 0.94258,-4.96093 c 0.33073,-1.67019 0.67799,-3.34037 1.0418,-5.01055 l 3.67109,-16.4207 h 9.62422 l -9.87227,36.95898 h -9.87226 l -4.7377,-18.67793 c -0.34726,-1.4056 -0.711057,-3.03444 -1.091397,-4.88652 -0.36381,-1.85209 -0.82683,-4.0349 -1.38906,-6.54844 h 2.530067 c -0.562237,2.51354 -1.025257,4.69635 -1.389057,6.54844 -0.3638,1.85208 -0.7276,3.48092 -1.09141,4.88652 l -4.712886,18.67793 z m 48.269913,-28.74863 c -1.37252,0 -2.497,-0.40514 -3.37343,-1.21543 -0.87643,-0.81029 -1.31465,-1.84382 -1.31465,-3.10059 0,-1.25677 0.43822,-2.28203 1.31465,-3.07578 0.87643,-0.81029 2.00091,-1.21543 3.37343,-1.21543 1.37253,0 2.49701,0.40514 3.37344,1.21543 0.89297,0.79375 1.33945,1.81901 1.33945,3.07578 0,1.25677 -0.44648,2.2903 -1.33945,3.10059 -0.87643,0.81029 -2.00091,1.21543 -3.37344,1.21543 z"
       id="text1"
       style="font-weight:800;font-size:50.8px;font-family:'Inter Variable';-inkscape-font-specification:'Inter Variable Ultra-Bold';fill:#ffffff;stroke-width:0.264583"
       aria-label="Wi" />
  </g>
</svg>
