<?xml version="1.0" encoding="UTF-8" standalone="no"?>
<!-- Created with Inkscape (http://www.inkscape.org/) -->

<svg
   width="66.095177mm"
   height="23.752949mm"
   viewBox="0 0 66.095177 23.752949"
   version="1.1"
   id="svg1"
   xmlns="http://www.w3.org/2000/svg"
   xmlns:svg="http://www.w3.org/2000/svg">
  <defs
     id="defs1" />
  <g
     id="layer1"
     transform="translate(-71.952412,-127.36686)">
    <path
       style="font-weight:800;font-size:22.5778px;font-family:'Inter Variable';-inkscape-font-specification:'Inter Variable Ultra-Bold';text-align:center;text-anchor:middle;fill:#df8020;fill-opacity:1;stroke-width:0.264583"
       d="m 125.36962,140.8055 v -3.09783 h 8.80843 v 3.09783 z"
       id="path5" />
    <path
       style="font-weight:800;font-size:22.5778px;font-family:'Inter Variable';-inkscape-font-specification:'Inter Variable Ultra-Bold';text-align:center;text-anchor:middle;fill:#df8020;fill-opacity:1;stroke-width:0.264583"
       d="m 121.50009,143.96948 5.64445,-16.42623 h 5.22552 l 5.67753,16.42623 h -4.43178 l -2.22691,-7.22093 q -0.54019,-1.80798 -1.06936,-3.64904 -0.52917,-1.84106 -1.08038,-3.99081 h 1.06936 q -0.57327,2.14975 -1.11346,3.99081 -0.52917,1.84106 -1.09141,3.64904 l -2.29306,7.22093 z"
       id="path4" />
    <path
       style="font-weight:800;font-size:22.5778px;font-family:'Inter Variable';-inkscape-font-specification:'Inter Variable Ultra-Bold';text-align:center;text-anchor:middle;fill:#df8020;fill-opacity:1;stroke-width:0.264583"
       d="m 105.1797,143.96948 -4.37665,-16.42623 h 4.26641 l 1.6316,7.2981 q 0.24253,1.11345 0.452,2.22691 0.22048,1.10243 0.41892,2.20486 0.20946,1.10244 0.39688,2.21589 h -0.8599 q 0.22049,-1.11345 0.42995,-2.21589 0.22048,-1.10243 0.45199,-2.20486 0.24254,-1.11346 0.50712,-2.22691 l 1.75287,-7.2981 h 3.93568 l 1.75287,7.2981 q 0.25356,1.11345 0.48507,2.22691 0.24253,1.10243 0.46302,2.20486 0.22048,1.10244 0.44097,2.21589 h -0.88194 q 0.19843,-1.11345 0.39687,-2.21589 0.20946,-1.10243 0.41892,-2.20486 0.22049,-1.11346 0.46303,-2.22691 l 1.63159,-7.2981 h 4.27744 l -4.38768,16.42623 h -4.38768 l -2.10564,-8.30131 q -0.23151,-0.93707 -0.48507,-2.17179 -0.24254,-1.23472 -0.61736,-2.91042 h 1.12448 q -0.37483,1.6757 -0.61736,2.91042 -0.24254,1.23472 -0.48507,2.17179 l -2.09462,8.30131 z"
       id="path3" />
    <path
       style="font-weight:800;font-size:22.5778px;font-family:'Inter Variable';-inkscape-font-specification:'Inter Variable Ultra-Bold';text-align:center;text-anchor:middle;fill:#df8020;fill-opacity:1;stroke-width:0.264583"
       d="m 97.782386,131.1923 q -0.915018,0 -1.499307,-0.54019 -0.584289,-0.54019 -0.584289,-1.37804 0,-0.83785 0.584289,-1.36702 0.584289,-0.54019 1.499307,-0.54019 0.915018,0 1.499307,0.54019 0.595313,0.52917 0.595313,1.36702 0,0.83785 -0.595313,1.37804 -0.584289,0.54019 -1.499307,0.54019 z"
       id="path2" />
    <path
       style="font-weight:800;font-size:22.5778px;font-family:'Inter Variable';-inkscape-font-specification:'Inter Variable Ultra-Bold';text-align:center;text-anchor:middle;fill:#df8020;fill-opacity:1;stroke-width:0.264583"
       d="M 95.897228,143.96948 V 132.3278 h 3.792365 v 11.64168 z"
       id="path1" />
    <path
       style="font-weight:800;font-size:22.5778px;font-family:'Inter Variable';-inkscape-font-specification:'Inter Variable Ultra-Bold';text-align:center;text-anchor:middle;fill:#df8020;fill-opacity:1;stroke-width:0.264583"
       d="m 76.329066,143.96948 -4.376654,-16.42623 h 4.266411 l 1.631599,7.2981 q 0.242535,1.11345 0.451997,2.22691 0.220486,1.10243 0.418924,2.20486 0.209462,1.10244 0.396875,2.21589 h -0.859897 q 0.220487,-1.11345 0.429949,-2.21589 0.220486,-1.10243 0.451997,-2.20486 0.242535,-1.11346 0.507118,-2.22691 l 1.752867,-7.2981 h 3.935681 l 1.752866,7.2981 q 0.253559,1.11345 0.48507,2.22691 0.242535,1.10243 0.463021,2.20486 0.220487,1.10244 0.440973,2.21589 h -0.881945 q 0.198437,-1.11345 0.396875,-2.21589 0.209462,-1.10243 0.418924,-2.20486 0.220487,-1.11346 0.463021,-2.22691 l 1.631599,-7.2981 h 4.277435 l -4.387678,16.42623 h -4.387678 l -2.105644,-8.30131 q -0.231511,-0.93707 -0.48507,-2.17179 -0.242535,-1.23472 -0.617362,-2.91042 h 1.12448 q -0.374827,1.6757 -0.617362,2.91042 -0.242534,1.23472 -0.485069,2.17179 l -2.094621,8.30131 z"
       id="text2" />
    <path
       style="font-weight:800;font-size:5.64444px;font-family:'Inter Variable';-inkscape-font-specification:'Inter Variable Ultra-Bold';text-align:center;text-anchor:middle;fill:#df8020;fill-opacity:1;stroke-width:0.264583"
       d="m 76.341182,149.92918 v -4.10655 h 1.02526 l 1.165819,1.86587 q 0.06615,0.10197 0.162608,0.27285 0.09646,0.17087 0.20395,0.36655 0.107487,0.19569 0.201193,0.37207 l -0.115755,0.26734 q -0.01102,-0.20395 -0.01929,-0.46577 -0.0083,-0.26459 -0.01378,-0.50988 -0.0028,-0.24529 -0.0028,-0.3886 v -1.78043 h 0.992187 v 4.10655 h -1.028016 l -1.069357,-1.70876 q -0.07717,-0.12678 -0.195681,-0.32797 -0.118511,-0.2012 -0.259071,-0.452 -0.137803,-0.2508 -0.283875,-0.5209 l 0.187413,-0.0827 q 0.01929,0.2949 0.02756,0.56775 0.0083,0.27285 0.01103,0.48507 0.0028,0.20946 0.0028,0.32797 v 1.71152 z m 5.539709,0.0661 q -0.454752,0 -0.802017,-0.18741 -0.34451,-0.18742 -0.537435,-0.52917 -0.192925,-0.34175 -0.192925,-0.80477 0,-0.46027 0.192925,-0.80202 0.192925,-0.34175 0.537435,-0.52917 0.347265,-0.19017 0.802017,-0.19017 0.457509,0 0.799262,0.19017 0.344509,0.18742 0.537434,0.52917 0.192926,0.34175 0.192926,0.80202 0,0.46302 -0.192926,0.80477 -0.192925,0.34175 -0.537434,0.52917 -0.341753,0.18741 -0.799262,0.18741 z m 0,-0.75516 q 0.165365,0 0.292144,-0.0882 0.129536,-0.0909 0.20395,-0.26183 0.07441,-0.17087 0.07441,-0.41616 0,-0.24529 -0.07441,-0.41617 -0.07441,-0.17088 -0.20395,-0.25907 -0.126779,-0.091 -0.292144,-0.091 -0.165364,0 -0.2949,0.091 -0.129535,0.0882 -0.203949,0.25907 -0.07166,0.17088 -0.07166,0.41617 0,0.24529 0.07166,0.41616 0.07441,0.17088 0.203949,0.26183 0.129536,0.0882 0.2949,0.0882 z m 3.064755,0.68901 v -2.91041 h 0.91226 v 0.67799 h -0.0441 q 0.07166,-0.25356 0.212218,-0.41616 0.14056,-0.16537 0.327973,-0.24529 0.187413,-0.0799 0.394118,-0.0799 0.330729,0 0.578776,0.19292 0.248047,0.19017 0.297656,0.54846 h -0.08268 q 0.05237,-0.23977 0.195681,-0.40514 0.143316,-0.16536 0.347265,-0.2508 0.206706,-0.0854 0.440972,-0.0854 0.286632,0 0.507118,0.12402 0.223242,0.12403 0.350021,0.35829 0.12678,0.23151 0.12678,0.55397 v 1.93752 h -0.950846 v -1.72805 q 0,-0.22876 -0.124023,-0.35278 -0.121268,-0.12403 -0.314193,-0.12403 -0.132291,0 -0.23151,0.0606 -0.09922,0.0606 -0.15434,0.17087 -0.05512,0.11025 -0.05512,0.25908 v 1.71427 h -0.906748 v -1.73908 q 0,-0.21222 -0.118511,-0.339 -0.118511,-0.12678 -0.314193,-0.12678 -0.126779,0 -0.228754,0.0606 -0.09922,0.0606 -0.159852,0.17363 -0.05788,0.113 -0.05788,0.27561 v 1.69498 z m 5.980681,0.0496 q -0.292144,0 -0.518142,-0.0937 -0.223242,-0.0965 -0.352777,-0.28663 -0.12678,-0.19293 -0.12678,-0.48232 0,-0.24529 0.08819,-0.41065 0.08819,-0.16812 0.242534,-0.27285 0.157096,-0.10474 0.361046,-0.1571 0.206705,-0.0551 0.438216,-0.0744 0.259071,-0.0221 0.416167,-0.0469 0.157096,-0.0276 0.225998,-0.0744 0.0689,-0.0496 0.0689,-0.13781 v -0.0138 q 0,-0.0882 -0.04961,-0.15158 -0.04961,-0.0661 -0.140559,-0.10197 -0.09095,-0.0386 -0.214974,-0.0386 -0.132292,0 -0.228754,0.0413 -0.09646,0.0386 -0.151584,0.113 -0.05512,0.0717 -0.06615,0.17088 h -0.881944 q 0.02205,-0.31695 0.184657,-0.54019 0.162608,-0.226 0.457508,-0.34451 0.297656,-0.12127 0.719336,-0.12127 0.316948,0 0.559483,0.0689 0.24529,0.0661 0.413411,0.19844 0.168121,0.12953 0.253559,0.3197 0.08544,0.18742 0.08544,0.4272 v 1.95956 h -0.926041 v -0.4079 h -0.01102 q -0.08819,0.1571 -0.206706,0.25908 -0.118511,0.0992 -0.275607,0.14882 -0.157096,0.0496 -0.363802,0.0496 z m 0.289388,-0.62011 q 0.157096,0 0.283876,-0.0606 0.129535,-0.0606 0.203949,-0.16536 0.07441,-0.10749 0.07441,-0.2508 v -0.26459 q -0.03858,0.0165 -0.09095,0.0331 -0.05237,0.0165 -0.118512,0.0303 -0.06339,0.0138 -0.140559,0.0276 -0.07717,0.0138 -0.165365,0.0303 -0.126779,0.0193 -0.225998,0.0606 -0.09646,0.0413 -0.15434,0.11025 -0.05512,0.0661 -0.05512,0.1626 0,0.091 0.04961,0.15435 0.04961,0.0634 0.135047,0.0992 0.08819,0.0331 0.20395,0.0331 z m 3.458872,1.76113 q -0.44924,0 -0.746896,-0.12403 -0.297656,-0.12402 -0.460264,-0.3445 -0.162609,-0.21773 -0.206706,-0.4961 h 0.906749 q 0.0248,0.0882 0.09371,0.15434 0.0689,0.0662 0.173633,0.10198 0.104731,0.0358 0.239778,0.0358 0.264583,0 0.402387,-0.14883 0.137804,-0.14607 0.137804,-0.43546 v -0.44924 h -0.0028 q -0.07717,0.17087 -0.201194,0.28112 -0.121267,0.11024 -0.283875,0.16261 -0.159853,0.0524 -0.350022,0.0524 -0.380338,0 -0.664214,-0.18741 -0.283875,-0.19017 -0.440971,-0.5209 -0.154341,-0.33073 -0.154341,-0.75792 0,-0.4327 0.159853,-0.76894 0.159852,-0.33625 0.440972,-0.52642 0.281119,-0.19292 0.650433,-0.19292 0.190169,0 0.344509,0.0551 0.157097,0.0524 0.283876,0.1571 0.126779,0.10473 0.214974,0.25907 h 0.0028 v -0.4079 h 0.942577 v 2.75056 q 0,0.47405 -0.181901,0.7717 -0.179144,0.29766 -0.512629,0.43822 -0.333485,0.14056 -0.788238,0.14056 z m -0.03307,-1.95406 q 0.181901,0 0.316949,-0.0909 0.135048,-0.091 0.209462,-0.25631 0.07717,-0.16812 0.07717,-0.39137 0,-0.22324 -0.07717,-0.3886 -0.07441,-0.16537 -0.209462,-0.25632 -0.135048,-0.0909 -0.316949,-0.0909 -0.170876,0 -0.300412,0.0882 -0.126779,0.0882 -0.195681,0.25355 -0.06615,0.16537 -0.06615,0.39412 0,0.23151 0.06615,0.39688 0.0689,0.16536 0.195681,0.25356 0.129536,0.0882 0.300412,0.0882 z m 2.045008,0.76343 v -2.91041 h 0.948089 v 2.91041 z m 0.471289,-3.19429 q -0.228755,0 -0.374827,-0.13504 -0.146071,-0.13505 -0.146071,-0.34451 0,-0.20946 0.146071,-0.34176 0.146072,-0.13504 0.374827,-0.13504 0.228754,0 0.374826,0.13504 0.148828,0.1323 0.148828,0.34176 0,0.20946 -0.148828,0.34451 -0.146072,0.13504 -0.374826,0.13504 z m 2.389517,3.26044 q -0.44924,0 -0.788237,-0.19017 -0.338997,-0.19292 -0.529167,-0.53468 -0.187413,-0.34175 -0.187413,-0.7965 0,-0.452 0.187413,-0.79375 0.19017,-0.34451 0.529167,-0.53468 0.338997,-0.19293 0.788237,-0.19293 0.303168,0 0.556719,0.0882 0.25632,0.0882 0.44373,0.2508 0.19017,0.15985 0.30042,0.3831 0.11024,0.22048 0.12677,0.48782 h -0.91501 q -0.011,-0.10197 -0.0496,-0.18741 -0.03859,-0.0854 -0.104729,-0.14607 -0.06339,-0.0606 -0.148828,-0.091 -0.08544,-0.0331 -0.19017,-0.0331 -0.176388,0 -0.303168,0.0937 -0.126779,0.0909 -0.192925,0.26458 -0.06615,0.17363 -0.06615,0.41066 0,0.23702 0.06615,0.41065 0.06615,0.17363 0.192925,0.26734 0.12678,0.0909 0.303168,0.0909 0.104731,0 0.19017,-0.0303 0.08544,-0.0331 0.146072,-0.0937 0.06339,-0.0634 0.101975,-0.14883 0.0386,-0.0882 0.0524,-0.19293 h 0.91777 q -0.008,0.26734 -0.11575,0.49059 -0.10749,0.22048 -0.29766,0.38585 -0.19017,0.1626 -0.44924,0.25356 -0.256309,0.0882 -0.564989,0.0882 z m 2.279269,-0.0138 q -0.21497,0 -0.36656,-0.15158 -0.15158,-0.15434 -0.15158,-0.36932 0,-0.21497 0.15158,-0.36656 0.15159,-0.15158 0.36656,-0.15158 0.21498,0 0.36656,0.15158 0.15158,0.15159 0.15158,0.36656 0,0.21498 -0.15158,0.36932 -0.15158,0.15158 -0.36656,0.15158 z m 3.14149,0.011 q -0.66146,0 -1.03078,-0.34451 -0.36655,-0.34726 -0.36655,-0.99218 v -0.30041 h 0.92328 v 0.30868 q 0,0.24253 0.12127,0.37207 0.12126,0.12953 0.33899,0.12953 0.21498,0 0.33625,-0.12953 0.12126,-0.12954 0.12126,-0.37207 v -2.84152 h 0.99219 v 2.85805 q 0,0.63114 -0.37758,0.9729 -0.37758,0.33899 -1.05833,0.33899 z m 2.96002,0 q -0.31419,0 -0.54019,-0.13504 -0.22324,-0.13781 -0.34176,-0.39412 -0.11851,-0.25632 -0.11851,-0.61461 v -1.83003 h 0.94809 v 1.6316 q 0,0.25631 0.12403,0.39411 0.12678,0.13781 0.35002,0.13781 0.14883,0 0.25907,-0.0634 0.113,-0.0634 0.17363,-0.19017 0.0606,-0.12954 0.0606,-0.32797 v -1.58199 h 0.94809 v 2.91041 h -0.93706 v -0.77997 h 0.14056 q -0.13505,0.3831 -0.39136,0.61461 -0.25356,0.22875 -0.67524,0.22875 z m 3.6766,0.008 q -0.40238,0 -0.71382,-0.12127 -0.31144,-0.12126 -0.49609,-0.34726 -0.18466,-0.226 -0.21222,-0.53468 h 0.93431 q 0.0221,0.15985 0.14331,0.25632 0.12403,0.0937 0.33073,0.0937 0.19568,0 0.30593,-0.0689 0.11024,-0.0689 0.11024,-0.17914 0,-0.0965 -0.0909,-0.15434 -0.0882,-0.0606 -0.26183,-0.091 l -0.52641,-0.0937 q -0.42995,-0.0772 -0.65594,-0.2949 -0.22325,-0.21773 -0.22325,-0.56224 0,-0.28663 0.15434,-0.49885 0.1571,-0.21222 0.44924,-0.32797 0.2949,-0.11851 0.70005,-0.11851 0.4079,0 0.70555,0.12402 0.29766,0.12127 0.46302,0.34726 0.16812,0.22325 0.17639,0.53468 h -0.87367 q -0.003,-0.15434 -0.12678,-0.25356 -0.12127,-0.10197 -0.31144,-0.10197 -0.18466,0 -0.28939,0.0717 -0.10197,0.0717 -0.10197,0.17914 0,0.0909 0.0827,0.15159 0.0827,0.0606 0.23151,0.0882 l 0.58429,0.10749 q 0.45199,0.0827 0.66421,0.2756 0.21498,0.19293 0.21498,0.51815 0,0.29765 -0.17364,0.52365 -0.17087,0.226 -0.47955,0.35278 -0.30593,0.12402 -0.71383,0.12402 z m 3.64353,-2.98207 v 0.73312 h -2.04501 v -0.73312 z m -1.54891,-0.79375 h 0.95084 v 2.72576 q 0,0.14056 0.0551,0.19292 0.0551,0.0524 0.21498,0.0524 0.0717,0 0.17639,0 0.10473,0 0.15158,0 v 0.73311 q -0.0744,0 -0.226,0 -0.15158,0 -0.31143,0 -0.52366,0 -0.76895,-0.19568 -0.24253,-0.19843 -0.24253,-0.62287 z m 4.44003,3.77031 q -0.44924,0 -0.78823,-0.19017 -0.339,-0.19292 -0.52917,-0.53468 -0.18741,-0.34175 -0.18741,-0.7965 0,-0.452 0.18741,-0.79375 0.19017,-0.34451 0.52917,-0.53468 0.33899,-0.19293 0.78823,-0.19293 0.30317,0 0.55673,0.0882 0.25632,0.0882 0.44373,0.2508 0.19017,0.15985 0.30041,0.3831 0.11024,0.22048 0.12678,0.48782 h -0.91502 q -0.011,-0.10197 -0.0496,-0.18741 -0.0386,-0.0854 -0.10473,-0.14607 -0.0634,-0.0606 -0.14883,-0.091 -0.0854,-0.0331 -0.19016,-0.0331 -0.17639,0 -0.30317,0.0937 -0.12678,0.0909 -0.19293,0.26458 -0.0661,0.17363 -0.0661,0.41066 0,0.23702 0.0661,0.41065 0.0662,0.17363 0.19293,0.26734 0.12678,0.0909 0.30317,0.0909 0.10473,0 0.19016,-0.0303 0.0854,-0.0331 0.14608,-0.0937 0.0634,-0.0634 0.10197,-0.14883 0.0386,-0.0882 0.0524,-0.19293 h 0.91777 q -0.008,0.26734 -0.11576,0.49059 -0.10748,0.22048 -0.29765,0.38585 -0.19017,0.1626 -0.44924,0.25356 -0.25632,0.0882 -0.565,0.0882 z m 3.23563,0 q -0.45475,0 -0.80201,-0.18741 -0.34451,-0.18742 -0.53744,-0.52917 -0.19292,-0.34175 -0.19292,-0.80477 0,-0.46027 0.19292,-0.80202 0.19293,-0.34175 0.53744,-0.52917 0.34726,-0.19017 0.80201,-0.19017 0.45751,0 0.79926,0.19017 0.34451,0.18742 0.53744,0.52917 0.19292,0.34175 0.19292,0.80202 0,0.46302 -0.19292,0.80477 -0.19293,0.34175 -0.53744,0.52917 -0.34175,0.18741 -0.79926,0.18741 z m 0,-0.75516 q 0.16537,0 0.29215,-0.0882 0.12953,-0.0909 0.20395,-0.26183 0.0744,-0.17087 0.0744,-0.41616 0,-0.24529 -0.0744,-0.41617 -0.0744,-0.17088 -0.20395,-0.25907 -0.12678,-0.091 -0.29215,-0.091 -0.16536,0 -0.2949,0.091 -0.12953,0.0882 -0.20395,0.25907 -0.0717,0.17088 -0.0717,0.41617 0,0.24529 0.0717,0.41616 0.0744,0.17088 0.20395,0.26183 0.12954,0.0882 0.2949,0.0882 z m 3.07578,0.7524 q -0.38033,0 -0.66421,-0.18741 -0.28388,-0.19017 -0.44097,-0.53192 -0.15434,-0.34451 -0.15434,-0.80478 0,-0.44648 0.15985,-0.78823 0.15985,-0.34176 0.44097,-0.53193 0.28112,-0.19292 0.65044,-0.19292 0.19017,0 0.34451,0.0496 0.15434,0.0496 0.2756,0.15158 0.12403,0.0992 0.21498,0.25356 h 0.003 v -1.5875 h 0.95085 v 4.10655 h -0.93982 v -0.44924 h -0.003 q -0.0744,0.17088 -0.19844,0.28664 -0.12402,0.11299 -0.28663,0.16812 -0.16261,0.0579 -0.35278,0.0579 z m 0.26459,-0.75792 q 0.1819,0 0.31695,-0.0937 0.13504,-0.0965 0.20946,-0.26734 0.0772,-0.17088 0.0772,-0.40515 0,-0.23151 -0.0772,-0.39963 -0.0744,-0.17087 -0.20946,-0.26458 -0.13505,-0.0937 -0.31695,-0.0937 -0.17088,0 -0.30041,0.0909 -0.12678,0.091 -0.19569,0.26183 -0.0661,0.16812 -0.0661,0.40514 0,0.23978 0.0661,0.41066 0.0689,0.17088 0.19569,0.26458 0.12953,0.0909 0.30041,0.0909 z m 3.42304,0.76068 q -0.44648,0 -0.78548,-0.19293 -0.33624,-0.19568 -0.52641,-0.54019 -0.18741,-0.34451 -0.18741,-0.78823 0,-0.44373 0.18741,-0.78824 0.19017,-0.34451 0.52365,-0.53744 0.33349,-0.19568 0.76344,-0.19568 0.32797,0 0.59807,0.11025 0.27009,0.10748 0.46577,0.30868 0.19844,0.20119 0.30593,0.4768 0.10748,0.27285 0.10748,0.60358 v 0.25631 h -2.64307 v -0.56775 h 2.19935 l -0.43546,0.11576 q 0,-0.18742 -0.0689,-0.32246 -0.0689,-0.13505 -0.19843,-0.20671 -0.12678,-0.0744 -0.30593,-0.0744 -0.17914,0 -0.30868,0.0744 -0.12678,0.0717 -0.19844,0.20671 -0.0689,0.13504 -0.0689,0.32246 v 0.41892 q 0,0.19293 0.0717,0.339 0.0744,0.14331 0.20946,0.22048 0.13781,0.0772 0.32797,0.0772 0.14056,0 0.25081,-0.0386 0.11024,-0.0386 0.18465,-0.11024 0.0744,-0.0717 0.11025,-0.16537 h 0.85162 q -0.0524,0.29214 -0.25355,0.51814 -0.2012,0.22324 -0.50712,0.35278 -0.30317,0.12678 -0.66973,0.12678 z m 2.30408,-0.0138 q -0.21497,0 -0.36656,-0.15158 -0.15158,-0.15434 -0.15158,-0.36932 0,-0.21497 0.15158,-0.36656 0.15159,-0.15158 0.36656,-0.15158 0.21497,0 0.36656,0.15158 0.15158,0.15159 0.15158,0.36656 0,0.21498 -0.15158,0.36932 -0.15159,0.15158 -0.36656,0.15158 z m 1.01423,-1.68396 q 0,-0.49058 0.0799,-0.98943 0.0827,-0.50161 0.22324,-0.94258 0.14332,-0.44373 0.33073,-0.75241 h 0.90951 q -0.16537,0.3831 -0.29766,0.83234 -0.13229,0.44924 -0.20946,0.92328 -0.0744,0.47405 -0.0744,0.9288 0,0.40238 0.0662,0.78548 0.0689,0.38309 0.19844,0.78824 0.12953,0.40238 0.31695,0.86816 h -0.90951 q -0.30868,-0.52641 -0.47129,-1.14928 -0.16261,-0.62288 -0.16261,-1.2926 z m 1.75287,2.44188 q 0.19017,-0.46578 0.3197,-0.86816 0.12954,-0.40515 0.19568,-0.78824 0.0661,-0.3831 0.0661,-0.78548 0,-0.45475 -0.0772,-0.9288 -0.0744,-0.47404 -0.20671,-0.92328 -0.12953,-0.44924 -0.29765,-0.83234 h 0.9095 q 0.19017,0.30868 0.33073,0.75241 0.14332,0.44097 0.22324,0.94258 0.0799,0.49885 0.0799,0.98943 0,0.66972 -0.16261,1.2926 -0.15985,0.62287 -0.47129,1.14928 z"
       id="text2-8"
       aria-label=" No magic. Just code.() " />
  </g>
</svg>
